<svg xmlns="http://www.w3.org/2000/svg" viewBox="0 0 35.72 39.55"><title>iconAdsfree</title><g id="Layer_2" data-name="Layer 2"><g id="Layer_2-2" data-name="Layer 2"><circle cx="17.86" cy="21.69" r="17.86" style="fill:#e00a23"/><circle cx="17.86" cy="17.86" r="17.86" style="fill:#f5360b"/><path d="M13.78,23.06,9.34,27.5a.9.9,0,0,1-.64.26.89.89,0,0,1-.62-.26.9.9,0,0,1,0-1.27l4.48-4.49h.12A2.34,2.34,0,0,0,13.78,23.06Z" style="fill:#fff"/><path d="M27.34,9.49l-4.4,4.41a2.17,2.17,0,0,0-1.12-1.42l4.26-4.26a.89.89,0,0,1,1.26,0A.9.9,0,0,1,27.34,9.49Z" style="fill:#fff"/><circle cx="17.86" cy="17.86" r="12.81" style="fill:none;stroke:#fff;stroke-linecap:round;stroke-linejoin:round;stroke-width:1.78955829143524px"/><path d="M10.76,15.63c.31-.84.58-1.57,1.45-1.57s1.16.73,1.47,1.57l1.67,4.52a2.73,2.73,0,0,1,.26,1.07c0,.43-.34.71-.84.71s-.75-.36-.91-.85l-.21-.68H10.79l-.21.68c-.16.49-.34.85-.91.85s-.84-.28-.84-.71a2.73,2.73,0,0,1,.26-1.07Zm1.5.36h0l-.93,2.8h1.82Z" style="fill:#fff"/><path d="M21.68,21.06a.83.83,0,0,1-.84.87.87.87,0,0,1-.78-.53,1.68,1.68,0,0,1-1.44.64A2.81,2.81,0,0,1,16,19a2.8,2.8,0,0,1,2.59-3,1.93,1.93,0,0,1,1.38.47v-2a.84.84,0,1,1,1.68,0Zm-4-2c0,.78.41,1.42,1.15,1.42S20,19.79,20,19s-.4-1.41-1.14-1.41S17.71,18.24,17.71,19Z" style="fill:#fff"/><path d="M23.09,20.08c.52,0,.89.48,1.61.48.34,0,.47-.16.47-.33,0-.35-.36-.38-1.3-.77s-1.32-.67-1.32-1.57A2,2,0,0,1,24.71,16c.67,0,1.93.32,1.93,1.19a.68.68,0,0,1-.7.71c-.33,0-.82-.42-1.34-.42-.22,0-.44.11-.44.35,0,.66,2.62.51,2.62,2.34A2,2,0,0,1,24.63,22c-1.05,0-2.23-.42-2.23-1.16A.73.73,0,0,1,23.09,20.08Z" style="fill:#fff"/></g></g></svg>