<svg xmlns="http://www.w3.org/2000/svg" width="43.19" height="55.49" viewBox="0 0 43.19 55.49"><title>gradeIconHoliday</title><g id="Layer_2" data-name="Layer 2"><g id="Layer_1-2" data-name="Layer 1"><path d="M12.5,10.91c-2.29.91-5.88-5.71-6.11-6.3a3.37,3.37,0,0,1,6.27-2.48C12.89,2.72,14.8,10,12.5,10.91ZM8.81,1.57A1.93,1.93,0,0,0,7.72,4.08C8.33,5.63,11.06,9.4,12,9.57c.56-.75,0-5.37-.64-6.91A1.94,1.94,0,0,0,8.81,1.57Z" fill="#ff7843"/><path d="M41.67,26a21.59,21.59,0,1,1-28-12.14A21.59,21.59,0,0,1,41.67,26ZM6.28,40a16.49,16.49,0,0,1,9.26-21.36,1.06,1.06,0,1,0-.78-2A18.6,18.6,0,0,0,4.31,40.73a1.06,1.06,0,1,0,2-.78Z" fill="#ff7843"/><path d="M17.4,8.39a1.47,1.47,0,0,0-2-1L8,10.32A1.89,1.89,0,0,0,6.75,12.6l2,5.1,10.65-4.21Z" fill="#ff7843"/></g></g></svg>