<svg xmlns="http://www.w3.org/2000/svg" width="59.5" height="34.76" viewBox="0 0 59.5 34.76"><title>gradeIconLetters</title><g id="Layer_2" data-name="Layer 2"><g id="Layer_1-2" data-name="Layer 1"><path d="M2.83,7.94C3.3,4.19,3.71,1,7.25.15S12.66,2,14.72,5.2L25.78,22a11.6,11.6,0,0,1,2,4.13c.4,1.75-.73,3.21-2.75,3.67-2.31.54-3.4-.78-4.51-2.6l-1.51-2.59L7.42,27.32l-.23,3c-.2,2.12-.6,3.78-2.92,4.31-2,.46-3.67-.35-4.07-2.1a11.78,11.78,0,0,1,0-4.62ZM9.28,8,9.19,8,8,20.28l7.43-1.71Z" fill="#ffd527"/><path d="M22.43,5a2.67,2.67,0,0,1,2.39-2.7h5.37a5.27,5.27,0,0,1,5.63,5.44,4.68,4.68,0,0,1-2.39,3.93,5,5,0,0,1,4,5.07c0,3.17-2.05,6.19-7,6.19H24.82a2.45,2.45,0,0,1-2.39-2.46Zm4.91,5.16h1.84c1.29,0,2.08-.24,2.08-1.48s-.76-1.47-2.08-1.47H27.34Zm0,8.84H30c1.52,0,2.75-.45,2.75-2s-1.4-2-2.75-2H27.34Z" fill="#ffd527"/><path d="M53.52,4.85c3.3,1.28,6.88,3.75,5.77,6.61a2.66,2.66,0,0,1-3.36,1.68c-1.28-.49-2.19-2.16-4.31-3-4.41-1.72-7.55,1.17-9,4.88s-.79,7.83,2.95,9.28c3.4,1.32,4.37.42,5.79,1a2.49,2.49,0,0,1,1.44,3.47c-1.16,3-6.11,2.28-9.11,1.11-7.54-2.93-9.59-10.23-6.93-17.1C39.59,5.49,46.31,2.05,53.52,4.85Z" fill="#ffd527"/></g></g></svg>