<svg xmlns="http://www.w3.org/2000/svg" width="48.71" height="49.9" viewBox="0 0 48.71 49.9"><title>gradeIconStrategy</title><g id="Layer_2" data-name="Layer 2"><g id="Layer_1-2" data-name="Layer 1"><path d="M42.14,27.91c.13.07.24.15.36.23a1,1,0,0,0,1,.12,1.18,1.18,0,0,0,.57-.48l4-6.68a4.29,4.29,0,0,0-1.45-5.88L22.73.77,22.47.62a4.27,4.27,0,0,0-5.88,1.45L12.23,9.29a.7.7,0,0,1-.51.32.73.73,0,0,1-.58-.25,6,6,0,1,0-5.66,9.15.66.66,0,0,1,.62.41.66.66,0,0,1,0,.57l-5,8.24a4.27,4.27,0,0,0,1.45,5.88l6.74,4.08a.65.65,0,0,1,.3.48.67.67,0,0,1-.36.66,5.79,5.79,0,0,0-1.88,1.93A6,6,0,1,0,17.64,47a6.1,6.1,0,0,0,.85-2.7.74.74,0,0,1,.39-.49.71.71,0,0,1,.6.05l7.22,4.36a4.27,4.27,0,0,0,5.88-1.45L36.7,40a1.19,1.19,0,0,0,.14-.78,1.05,1.05,0,0,0-.57-.76l-.35-.2a6,6,0,1,1,6.22-10.3Z" fill="#e0e500"/></g></g></svg>