<svg xmlns="http://www.w3.org/2000/svg" width="61.62" height="35.47" viewBox="0 0 61.62 35.47"><title>gradeIconNumbers</title><g id="Layer_2" data-name="Layer 2"><g id="Layer_1-2" data-name="Layer 1"><path d="M5.89,7,3.8,7.41A3,3,0,0,1,.08,5,3,3,0,0,1,2.49,1.27L7.9.12c1.51-.33,3.43-.14,4,2.61l4.82,22.56c.5,2.33-.64,3.81-2.56,4.23S10.61,29,10.11,26.7Z" fill="#1dd3de"/><path d="M36.14,28.8a3.34,3.34,0,1,1,0,6.67h-15c-2.48,0-4.23-1.31-4.23-3.24,0-2.76,4.19-6.11,5.66-7.77,1.89-2.16,8.33-8.87,8.33-12.18,0-2.21-1.06-3.08-2.85-3.08-4.93,0-2.44,7-7.14,7a3.46,3.46,0,0,1-3.54-3.59A10.77,10.77,0,0,1,28.45,2c5.71,0,10.4,4,10.4,10,0,6.57-6.62,11.19-10.53,16.74Z" fill="#1dd3de"/><path d="M44.29,15.36c3,1,1,4.68,4.91,6a3,3,0,0,0,3.82-2c.71-2.13-.81-3.26-2.62-3.9A2.57,2.57,0,0,1,48.88,12c.51-1.54,1.42-1.82,3.83-1.6,1.39.16,2.43-.19,2.9-1.59A2,2,0,0,0,54.1,6.21c-2.86-1-4,2-6.58,1.1A2.63,2.63,0,0,1,46.08,4C47.26.43,52.53-.37,55.85.74,60,2.12,62.66,5.81,61.22,10.1a6.62,6.62,0,0,1-4.48,4.13,6.79,6.79,0,0,1,1.94,7.67c-1.5,4.51-6.44,6.51-11.33,4.88-5.1-1.7-7.66-6.36-6.54-9.72A2.93,2.93,0,0,1,44.29,15.36Z" fill="#1dd3de"/></g></g></svg>