<svg xmlns="http://www.w3.org/2000/svg" width="53.64" height="50.07" viewBox="0 0 53.64 50.07"><title>gradeIconSkill</title><g id="Layer_2" data-name="Layer 2"><g id="Layer_1-2" data-name="Layer 1"><path d="M36.58,2.77C22.56-2.79,7.35-.12,1.78,12S4.65,33.77,12,37.32c11.89,5.76,17.47,1,13.61-2.53-2.54-2.32-3-4.57-2.11-6.07l-.11-.18C21.15,24.72,21.8,21.2,22.83,18a2,2,0,0,1,1.91-1.39l.28,0a2,2,0,0,1,1.72,1.92c0,.72,1.44,1.68,2.86,1.95a6.63,6.63,0,0,1,4.63,3.43A5.93,5.93,0,0,1,34.91,27q1,.55,2.1,1.29c6.16-.07,10.82-2.77,11.92-6.69C50.69,15.35,45.63,6.37,36.58,2.77Zm-30,18.78a2.58,2.58,0,1,1,2-3.08A2.58,2.58,0,0,1,6.61,21.55Zm5.68-8.85A3.12,3.12,0,1,1,14.66,9,3.1,3.1,0,0,1,12.29,12.7Zm12.15-2.14a3.68,3.68,0,1,1,2.79-4.39A3.68,3.68,0,0,1,24.44,10.56Zm13.34,4.8a4.2,4.2,0,1,1,3.18-5A4.19,4.19,0,0,1,37.78,15.36Zm-8.55,7.07c-1.94-.36-4.43-1.76-4.49-3.85-.95,3-1.4,5.78.25,8.78a6.49,6.49,0,0,1,4.63-.13,25.93,25.93,0,0,0,3.06.72C33.63,25.55,31.71,22.89,29.23,22.43Z" fill="#c046f9"/><path d="M52.86,50.07a.79.79,0,0,1-.41-.11C46,46.15,40.91,42.59,36,37.16a.3.3,0,0,1-.2.08h0a.32.32,0,0,1-.22-.1,72.44,72.44,0,0,1-5.5-7,4.62,4.62,0,0,1-.65,0,5,5,0,0,1-4.29-2.68l-.1-.18c-1.65-3-1.2-5.81-.25-8.78.06,2.09,2.55,3.49,4.49,3.85,2.48.46,4.4,3.12,3.45,5.52a1,1,0,0,1-.06.16,33.32,33.32,0,0,1,7.15,4.78.29.29,0,0,1,0,.43,78.09,78.09,0,0,1,13.69,15.5A.8.8,0,0,1,52.86,50.07Z" fill="#c046f9"/></g></g></svg>